PathFileType	4	(X/Y/Z)	markers.trc																																																																																																																																																																
DataRate	CameraRate	NumFrames	NumMarkers	Units	OrigDataRate	OrigDataStartFrame	OrigNumFrames																																																																																																																																																												
200	200	4	54	mm	200	1036	100																																																																																																																																																												
Frame#	Time	FHD			LBHD			RBHD			C7			T10			CLAV			LSHO			LUUPA			LMUPA			LDUPA			LLEP			LMEP			LRAD			LUL			LRFIN			RSHO			RUPA1			RMUPA			RDUPA			RLEP			RMEP			RRAD			RUL			RUFIN			RASI			USACR			LSACR			RSACR			LTHI1			LTHI2			LTHI3			LTHI4			LTIB1			LTIB2			LTIB3			LTIB4			LLMAL			LHEE			LMT1			LMT2			RTHI			RTHI2			RTHI3			RTHI4			RLFC			RTIB1			RTIB2			RTIB3			RTIB4			RLMAL			RHEE			RMT1			RMT2			RMT5		
		X1	Y1	Z1	X2	Y2	Z2	X3	Y3	Z3	X4	Y4	Z4	X5	Y5	Z5	X6	Y6	Z6	X7	Y7	Z7	X8	Y8	Z8	X9	Y9	Z9	X10	Y10	Z10	X11	Y11	Z11	X12	Y12	Z12	X13	Y13	Z13	X14	Y14	Z14	X15	Y15	Z15	X16	Y16	Z16	X17	Y17	Z17	X18	Y18	Z18	X19	Y19	Z19	X20	Y20	Z20	X21	Y21	Z21	X22	Y22	Z22	X23	Y23	Z23	X24	Y24	Z24	X25	Y25	Z25	X26	Y26	Z26	X27	Y27	Z27	X28	Y28	Z28	X29	Y29	Z29	X30	Y30	Z30	X31	Y31	Z31	X32	Y32	Z32	X33	Y33	Z33	X34	Y34	Z34	X35	Y35	Z35	X36	Y36	Z36	X37	Y37	Z37	X38	Y38	Z38	X39	Y39	Z39	X40	Y40	Z40	X41	Y41	Z41	X42	Y42	Z42	X43	Y43	Z43	X44	Y44	Z44	X45	Y45	Z45	X46	Y46	Z46	X47	Y47	Z47	X48	Y48	Z48	X49	Y49	Z49	X50	Y50	Z50	X51	Y51	Z51	X52	Y52	Z52	X53	Y53	Z53	X54	Y54	Z54
																																																																																																																																																																			
1036	5.175	-1032.970738	1572.702326	322.638086	-1206.890867	1579.321499	226.026914	-1175.046557	1569.033197	347.4621	-1264.67823	1442.01492	274.984791	-1433.693254	1136.35709	282.124022	-1152.82244	1321.333302	281.939677	-1180.991484	1413.586266	161.722332	-1125.313872	1276.78332	39.421122	-1081.537621	1275.859262	52.800398	-1083.034495	1224.002081	23.449325	-1016.853323	1123.986109	1.94025	-1024.800399	1078.375349	63.35897	-933.231382	1310.570595	152.833201	-861.959356	1289.945585	141.282331	-920.609615	1373.707054	121.090656	-1187.296732	1389.040445	435.598966	-1343.691603	1378.146314	524.64174	-1362.066031	1333.842877	524.527912	-1409.3485	1371.275615	531.330488	-1542.593904	1354.193517	552.005478	-1556.064752	1352.566317	483.496087	-1660.260906	1112.211295	563.419018	-1711.492244	1156.125791	592.517638	-1668.489818	1068.718958	629.96766	-1300.310817	924.935604	356.37931	-1469.732125	1058.821475	294.989461	-1489.296573	1030.31382	268.77579	-1479.060084	1027.906045	325.668564	-1528.659208	732.222064	87.622522	-1541.840676	647.302174	97.038455	-1502.843171	626.470465	114.12978	-1595.462807	618.727267	107.344313	-1763.408241	375.935025	163.967943	-1836.675294	399.51388	121.76252	-1815.396037	366.352993	139.503235	-1875.714329	313.467395	170.371585	-2033.427812	267.500326	158.779001	-2095.599519	321.6502	199.453477	-2034.384877	113.563342	243.682454	-2033.99665	107.665361	197.237212	-1239.428109	779.495036	439.592901	-1175.521795	771.333063	430.695532	-1156.00843	794.600368	413.840326	-1138.504633	694.298654	415.528399	-1060.14464	628.242245	391.552634	-1018.082901	418.662131	349.991455	-1081.672323	341.438676	394.700442	-1041.100228	339.80843	371.508004	-1038.790961	294.078117	339.439094	-1093.178777	199.426577	377.008719	-1166.595167	150.854986	337.739808	-942.793149	160.691141	299.342602	-938.866746	159.985174	341.003254	-972.041973	131.737116	393.592553
1037	5.18	-1000.738277	1575.26011	324.201808	-1175.335516	1581.841136	228.733082	-1142.454429	1571.346875	349.654012	-1232.887432	1444.537946	276.924229	-1401.691996	1138.879871	281.598424	-1121.080885	1324.194457	283.919655	-1148.48981	1416.346686	163.128279	-1097.74206	1277.574404	38.760179	-1053.754219	1275.248677	50.720947	-1057.733007	1223.743349	21.357225	-995.231188	1121.633661	-1.037498	-1004.731213	1075.513194	59.784592	-906.364277	1301.86658	154.09265	-835.875688	1278.992915	142.468697	-891.342948	1364.947484	123.626801	-1156.935461	1391.181068	437.231878	-1314.132268	1378.549064	524.856319	-1332.013802	1334.123726	524.653446	-1379.841409	1371.035298	530.790032	-1513.215548	1352.609105	551.259383	-1525.922456	1350.11949	482.139608	-1624.574978	1107.42706	562.408652	-1677.076511	1150.172195	590.979121	-1632.00342	1064.138362	629.080519	-1267.949845	926.548603	355.876644	-1436.872682	1061.467741	294.029875	-1456.0417	1032.849864	267.606326	-1446.369797	1030.398494	324.596715	-1492.853622	734.152802	86.952308	-1505.973106	649.298988	97.129998	-1467.311559	628.520008	115.122063	-1559.7322	620.770387	106.724263	-1734.170115	382.014033	164.223429	-1806.198219	408.011305	121.337944	-1786.335102	374.237806	139.435767	-1848.826833	324.113121	170.614738	-2008.165273	284.706393	158.465148	-2067.157294	342.778192	198.35708	-2017.249204	131.299436	245.72753	-2017.027886	124.089668	199.34725	-1208.85044	777.070525	440.069618	-1145.09564	767.354907	431.955624	-1124.824909	789.926071	415.255355	-1109.803412	689.314908	417.583449	-1032.119138	621.121708	393.956316	-976.638642	414.168674	351.781895	-1034.35656	331.852263	395.997549	-993.676338	333.462135	372.855949	-987.974628	288.277074	340.389694	-1035.617737	188.678484	376.863028	-1106.034138	137.572851	336.861409	-882.839677	159.247618	298.591217	-878.896857	157.416603	340.204881	-910.533639	125.846573	391.757806
1038	5.185	-968.492154	1577.699327	325.790192	-1143.687814	1584.230781	231.35492	-1109.892797	1573.506117	351.868051	-1200.891842	1447.028634	278.829495	-1369.831426	1141.469971	281.40125	-1089.294379	1326.784681	285.680051	-1115.725314	1418.721816	164.209334	-1070.729161	1277.756702	37.995077	-1026.60193	1273.790022	48.523749	-1033.344202	1222.798912	19.075729	-975.03484	1118.360507	-3.931669	-986.39759	1072.036593	56.386035	-879.009516	1290.72761	155.162439	-809.74725	1264.920578	143.255658	-861.003668	1353.450582	126.003333	-1126.472918	1393.195846	438.785354	-1284.406203	1378.205068	525.240667	-1301.693805	1333.626549	524.838144	-1350.122989	1369.838111	530.623697	-1483.480163	1349.586723	550.836471	-1495.630585	1346.455722	481.249804	-1587.557187	1101.078678	561.519772	-1641.402143	1142.35797	589.747193	-1593.888692	1057.820029	628.190141	-1235.785492	928.147837	355.653993	-1404.279724	1064.10708	293.493175	-1422.979117	1035.381196	266.897785	-1413.804764	1032.856806	323.988604	-1456.660801	735.5865	86.350858	-1469.371415	650.76311	96.941305	-1430.892347	630.192456	115.546003	-1523.069811	621.978075	105.891577	-1703.596788	387.366249	163.982264	-1774.242864	416.194824	120.681834	-1755.958506	381.761189	139.104063	-1820.676152	334.864921	170.827863	-1981.545896	302.907062	158.583712	-2037.19989	364.476337	197.853292	-1997.669525	150.809225	248.044661	-1997.921204	142.477598	201.778696	-1178.691833	774.002465	440.748789	-1115.159146	762.531989	433.356649	-1094.114314	784.336332	416.767003	-1081.873573	683.435941	419.662422	-1005.007648	613.039199	396.093091	-937.046951	409.614335	353.511085	-989.017673	322.947601	397.299739	-948.431317	327.525605	374.22375	-939.514909	283.013206	341.485968	-980.594869	179.171628	376.939099	-1048.115151	125.973844	336.248603	-826.035849	158.226714	298.110333	-821.973108	155.253986	339.633745	-852.019992	120.654855	390.151528
1039	5.19	-936.275453	1580.013102	327.410416	-1111.97584	1586.45483	233.872221	-1077.400897	1575.491473	354.073538	-1168.692033	1449.450822	280.664095	-1338.101081	1144.061346	281.46639	-1057.464119	1329.060078	287.206781	-1082.676712	1420.653962	164.991792	-1044.19341	1277.432655	37.17498	-1000.041685	1271.584506	46.333077	-1009.763363	1221.317231	16.694952	-956.142722	1114.413985	-6.700158	-969.641299	1068.22717	53.250019	-851.277555	1277.276884	155.95126	-783.758888	1247.937435	143.534066	-829.759307	1339.26134	128.099381	-1095.912848	1395.076501	440.249754	-1254.493223	1377.146728	525.786997	-1271.090341	1332.39132	525.072775	-1320.170046	1367.722334	530.824585	-1453.354925	1345.181849	550.686736	-1465.135705	1341.61503	480.768	-1549.136696	1093.30093	560.730873	-1604.385869	1132.811419	588.785277	-1554.075228	1049.932371	627.285788	-1203.799369	929.738791	355.770731	-1371.957938	1066.643538	293.30704	-1390.100821	1037.821912	266.56672	-1381.383679	1035.193924	323.764301	-1420.11378	736.519925	85.787846	-1432.137937	651.690667	96.43681	-1393.688895	631.452349	115.377448	-1485.615321	622.398963	104.831614	-1671.721168	392.060383	163.201507	-1740.842974	424.094747	119.824043	-1724.257209	388.974911	138.48135	-1791.150653	345.678356	170.960099	-1953.342155	321.917434	159.070416	-2005.447054	386.616469	197.93482	-1975.62857	171.700262	250.504769	-1976.649865	162.491678	204.38521	-1148.942888	770.350995	441.649483	-1085.702133	756.974133	434.894479	-1063.891716	777.960851	418.371276	-1054.652456	676.825081	421.717624	-978.679402	604.29653	397.926845	-899.362054	405.063873	355.152566	-945.935611	314.809506	398.569879	-905.589818	322.011776	375.57713	-893.677964	278.243241	342.684678	-928.620106	170.881289	377.184728	-993.396011	115.975943	335.794516	-772.70932	157.419928	297.971248	-768.47517	153.325653	339.357091	-797.010201	116.069695	388.868202
